<svg width="15" height="15" viewBox="0 0 14.4453 14.4453" fill="none" xmlns="http://www.w3.org/2000/svg">
<path d="M12.2783 0C12.8529 2.87846e-05 13.4042 0.228462 13.8105 0.634766C14.2169 1.04107 14.4453 1.5924 14.4453 2.16699V12.2783C14.4453 12.8529 14.2169 13.4042 13.8105 13.8105C13.4042 14.2169 12.8529 14.4453 12.2783 14.4453H2.16699C1.5924 14.4453 1.04107 14.2169 0.634766 13.8105C0.228462 13.4042 2.87846e-05 12.8529 0 12.2783V2.16699C2.87214e-05 1.5924 0.228462 1.04107 0.634766 0.634766C1.04107 0.228462 1.5924 2.87214e-05 2.16699 0H12.2783ZM3 5.55664C2.72396 5.55676 2.5 5.78057 2.5 6.05664V9.80664C2.50035 10.0824 2.72417 10.3065 3 10.3066C3.27593 10.3066 3.49965 10.0825 3.5 9.80664V9.05664H10.833V9.80664C10.8334 10.0823 11.0573 10.3063 11.333 10.3066C11.6089 10.3066 11.8327 10.0825 11.833 9.80664V7.72266C11.8329 7.25867 11.6484 6.81346 11.3203 6.48535C10.9922 6.15737 10.547 5.97266 10.083 5.97266H7.16699C6.89106 5.97277 6.66717 6.19674 6.66699 6.47266V8.05664H3.5V6.05664C3.5 5.7805 3.27614 5.55664 3 5.55664ZM10.083 6.97266C10.2818 6.97266 10.4727 7.05193 10.6133 7.19238C10.7538 7.33295 10.8329 7.52389 10.833 7.72266V8.05664H7.66699V6.97266H10.083ZM5.08301 5.13965C4.72958 5.13979 4.39055 5.28035 4.14062 5.53027C3.89082 5.78022 3.75009 6.11928 3.75 6.47266C3.75009 6.82616 3.89065 7.16604 4.14062 7.41602C4.39052 7.6658 4.72968 7.8065 5.08301 7.80664C5.4365 7.80664 5.77634 7.66589 6.02637 7.41602C6.27634 7.16604 6.41691 6.82616 6.41699 6.47266C6.41691 6.11925 6.2762 5.78022 6.02637 5.53027C5.77632 5.28022 5.43663 5.13965 5.08301 5.13965ZM5.08301 6.13965C5.17141 6.13965 5.25682 6.17479 5.31934 6.2373C5.38164 6.29972 5.41691 6.38447 5.41699 6.47266C5.41691 6.56095 5.38177 6.64655 5.31934 6.70898C5.25685 6.77133 5.17128 6.80664 5.08301 6.80664C4.9949 6.8065 4.91002 6.77123 4.84766 6.70898C4.78522 6.64655 4.75009 6.56095 4.75 6.47266C4.75009 6.3845 4.78539 6.29971 4.84766 6.2373C4.91004 6.17492 4.9948 6.13979 5.08301 6.13965Z" fill="white"/>
</svg>