<svg width="15" height="15" viewBox="0 0 14.4453 14.4453" fill="none" xmlns="http://www.w3.org/2000/svg">
<path d="M12.2783 0C12.8529 2.87846e-05 13.4042 0.228462 13.8105 0.634766C14.2169 1.04107 14.4453 1.5924 14.4453 2.16699V12.2783C14.4453 12.8529 14.2169 13.4042 13.8105 13.8105C13.4042 14.2169 12.8529 14.4453 12.2783 14.4453H2.16699C1.5924 14.4453 1.04107 14.2169 0.634766 13.8105C0.228462 13.4042 2.87846e-05 12.8529 0 12.2783V2.16699C2.87214e-05 1.5924 0.228462 1.04107 0.634766 0.634766C1.04107 0.228462 1.5924 2.87214e-05 2.16699 0H12.2783ZM10.2334 4.21191C9.95135 3.92987 9.49396 3.92987 9.21191 4.21191L7.22266 6.20117L5.2334 4.21191C4.95135 3.92987 4.49396 3.92987 4.21191 4.21191C3.92987 4.49396 3.92987 4.95135 4.21191 5.2334L6.20117 7.22266L4.21191 9.21191C3.92987 9.49396 3.92987 9.95135 4.21191 10.2334C4.49396 10.5154 4.95135 10.5154 5.2334 10.2334L7.22266 8.24414L9.21191 10.2334C9.49396 10.5154 9.95135 10.5154 10.2334 10.2334C10.5154 9.95135 10.5154 9.49396 10.2334 9.21191L8.24414 7.22266L10.2334 5.2334C10.5154 4.95135 10.5154 4.49396 10.2334 4.21191Z" fill="white"/>
</svg>