<svg width="100" height="100" viewBox="41.6108 44.2773 14.4454 14.4454" fill="none" xmlns="http://www.w3.org/2000/svg">
<path d="M53.8892 44.2773C54.4638 44.2774 55.0151 44.5058 55.4214 44.9121C55.8277 45.3184 56.0561 45.8697 56.0562 46.4443V56.5557C56.0561 57.1303 55.8277 57.6816 55.4214 58.0879C55.0151 58.4942 54.4638 58.7226 53.8892 58.7227H43.7778C43.2032 58.7226 42.6519 58.4942 42.2456 58.0879C41.8393 57.6816 41.6109 57.1303 41.6108 56.5557V46.4443C41.6109 45.8697 41.8393 45.3184 42.2456 44.9121C42.6519 44.5058 43.2032 44.2774 43.7778 44.2773H53.8892ZM52.9302 48.0771C52.635 47.8088 52.178 47.8308 51.9097 48.126L47.1919 53.3154C47.0353 53.1432 46.8884 52.9817 46.7417 52.8203C46.4416 52.4902 46.1409 52.1593 45.7563 51.7363C45.488 51.4415 45.0319 51.4203 44.7368 51.6885C44.4418 51.9568 44.4197 52.4129 44.688 52.708C45.0725 53.131 45.3723 53.4619 45.6724 53.792C45.9724 54.122 46.2732 54.452 46.6577 54.875C46.7946 55.0254 46.9885 55.1113 47.1919 55.1113C47.3952 55.1113 47.5892 55.0254 47.7261 54.875L52.979 49.0967C53.2469 48.8016 53.225 48.3454 52.9302 48.0771Z" fill="white"/>
</svg>